<?xml version="1.0" encoding="utf-8"?>
<!-- Generator: Adobe Illustrator 23.0.1, SVG Export Plug-In . SVG Version: 6.00 Build 0)  -->
<svg version="1.1" id="logo" xmlns="http://www.w3.org/2000/svg" xmlns:xlink="http://www.w3.org/1999/xlink" x="0px" y="0px"
	 viewBox="0 0 372 147.5" style="enable-background:new 0 0 372 147.5;" xml:space="preserve">
<style type="text/css">
	.st0{fill:none;stroke:#000000;stroke-width:10;stroke-linecap:square;}
</style>
<path d="M19.3,49.4c-1.5,0-2.7,0.3-3.6,1c-1,0.7-1.8,1.5-2.4,2.6c-0.6,1-1.1,2.2-1.3,3.5c-0.3,1.3-0.4,2.5-0.4,3.7
	c0,1.2,0.1,2.4,0.4,3.6c0.3,1.2,0.7,2.4,1.2,3.4c0.6,1,1.4,1.8,2.3,2.5c1,0.6,2.2,1,3.6,1c2.2,0,3.9-0.6,5-1.8
	c1.2-1.2,1.9-2.8,2.2-4.9h8.8c-0.6,4.4-2.3,7.7-5.1,10c-2.8,2.3-6.4,3.5-10.8,3.5c-2.5,0-4.7-0.4-6.8-1.2c-2.1-0.8-3.8-2-5.3-3.5
	c-1.5-1.5-2.6-3.3-3.4-5.3c-0.8-2.1-1.2-4.3-1.2-6.8c0-2.6,0.4-4.9,1.1-7.1c0.7-2.2,1.8-4.1,3.3-5.7c1.4-1.6,3.2-2.8,5.3-3.7
	c2.1-0.9,4.5-1.3,7.2-1.3c2,0,3.9,0.3,5.7,0.8c1.8,0.5,3.4,1.3,4.9,2.3c1.4,1,2.6,2.3,3.5,3.9s1.4,3.4,1.5,5.5H26
	C25.4,51.3,23.1,49.4,19.3,49.4z"/>
<path d="M51.9,30.8V48h0.2c1.2-1.9,2.6-3.3,4.4-4.2c1.8-0.9,3.5-1.3,5.2-1.3c2.4,0,4.4,0.3,6,1c1.6,0.7,2.8,1.6,3.7,2.8
	c0.9,1.2,1.5,2.6,1.9,4.3c0.4,1.7,0.5,3.6,0.5,5.6v20.4h-9.1V57.8c0-2.7-0.4-4.8-1.3-6.1c-0.9-1.3-2.4-2-4.5-2
	c-2.5,0-4.3,0.7-5.4,2.2c-1.1,1.5-1.7,3.9-1.7,7.3v17.3h-9.1V30.8H51.9z"/>
<path d="M92,43.4v6.1h0.1c0.4-1,1-2,1.7-2.8c0.7-0.9,1.6-1.6,2.5-2.2c0.9-0.6,1.9-1.1,3-1.4c1.1-0.3,2.2-0.5,3.3-0.5
	c0.6,0,1.3,0.1,2,0.3v8.4c-0.4-0.1-0.9-0.2-1.5-0.2c-0.6-0.1-1.2-0.1-1.7-0.1c-1.7,0-3.1,0.3-4.2,0.8c-1.2,0.6-2.1,1.3-2.8,2.3
	s-1.2,2.1-1.5,3.4c-0.3,1.3-0.4,2.7-0.4,4.2v14.9h-9.1V43.4H92z"/>
<path d="M111.2,38.3v-7.5h9.1v7.5H111.2z M120.3,43.4v33.1h-9.1V43.4H120.3z"/>
<path d="M137.7,68.3c0.4,0.7,0.9,1.3,1.6,1.7c0.6,0.4,1.4,0.8,2.2,1c0.8,0.2,1.7,0.3,2.6,0.3c0.6,0,1.3-0.1,2-0.2
	c0.7-0.1,1.3-0.4,1.9-0.7c0.6-0.3,1.1-0.7,1.4-1.3c0.4-0.5,0.6-1.2,0.6-2c0-1.4-0.9-2.4-2.7-3.1c-1.8-0.7-4.3-1.4-7.6-2
	c-1.3-0.3-2.6-0.6-3.9-1.1c-1.3-0.4-2.4-0.9-3.4-1.6c-1-0.7-1.8-1.5-2.4-2.5c-0.6-1-0.9-2.2-0.9-3.7c0-2.1,0.4-3.9,1.2-5.2
	c0.8-1.4,1.9-2.4,3.3-3.2c1.4-0.8,2.9-1.3,4.6-1.7c1.7-0.3,3.5-0.5,5.2-0.5s3.5,0.2,5.2,0.5c1.7,0.3,3.2,0.9,4.5,1.7
	c1.3,0.8,2.4,1.9,3.3,3.2c0.9,1.3,1.4,3,1.6,5.1h-8.6c-0.1-1.7-0.8-2.9-2-3.6c-1.2-0.6-2.6-0.9-4.2-0.9c-0.5,0-1.1,0-1.7,0.1
	c-0.6,0.1-1.1,0.2-1.6,0.4c-0.5,0.2-0.9,0.5-1.2,0.9c-0.3,0.4-0.5,1-0.5,1.6c0,0.8,0.3,1.5,0.9,2c0.6,0.5,1.4,0.9,2.3,1.2
	c1,0.3,2.1,0.6,3.3,0.9c1.2,0.3,2.5,0.5,3.8,0.8c1.3,0.3,2.6,0.7,3.9,1.1c1.3,0.4,2.4,1,3.4,1.7c1,0.7,1.8,1.6,2.4,2.6
	c0.6,1,0.9,2.3,0.9,3.9c0,2.2-0.4,4-1.3,5.5c-0.9,1.5-2,2.7-3.4,3.6c-1.4,0.9-3,1.5-4.8,1.9c-1.8,0.4-3.7,0.5-5.5,0.5
	c-1.9,0-3.8-0.2-5.6-0.6c-1.8-0.4-3.5-1-4.9-1.9c-1.4-0.9-2.6-2.1-3.5-3.6c-0.9-1.5-1.4-3.3-1.5-5.5h8.6
	C137.1,66.7,137.3,67.6,137.7,68.3z"/>
<path d="M185.2,43.4v6.1h-6.7v16.4c0,1.5,0.3,2.6,0.8,3.1c0.5,0.5,1.5,0.8,3.1,0.8c0.5,0,1,0,1.5-0.1c0.5,0,0.9-0.1,1.3-0.2v7
	c-0.8,0.1-1.6,0.2-2.6,0.3c-0.9,0-1.9,0.1-2.8,0.1c-1.4,0-2.7-0.1-4-0.3c-1.3-0.2-2.4-0.6-3.3-1.1c-1-0.6-1.7-1.3-2.3-2.4
	c-0.6-1-0.8-2.4-0.8-4V49.5H164v-6.1h5.5v-9.9h9.1v9.9H185.2z"/>
<path d="M192.4,52.8c0.8-2.2,2-4,3.5-5.5s3.3-2.7,5.4-3.5c2.1-0.8,4.4-1.2,7-1.2s5,0.4,7.1,1.2c2.1,0.8,3.9,2,5.4,3.5
	c1.5,1.5,2.6,3.3,3.5,5.5c0.8,2.2,1.2,4.6,1.2,7.2s-0.4,5-1.2,7.2c-0.8,2.1-2,4-3.5,5.5c-1.5,1.5-3.3,2.7-5.4,3.5
	c-2.1,0.8-4.5,1.2-7.1,1.2s-4.9-0.4-7-1.2c-2.1-0.8-3.9-2-5.4-3.5c-1.5-1.5-2.6-3.3-3.5-5.5c-0.8-2.1-1.2-4.5-1.2-7.2
	S191.6,54.9,192.4,52.8z M200.6,63.9c0.3,1.3,0.7,2.4,1.3,3.4c0.6,1,1.4,1.8,2.5,2.4c1,0.6,2.3,0.9,3.8,0.9c1.5,0,2.8-0.3,3.9-0.9
	c1-0.6,1.9-1.4,2.5-2.4c0.6-1,1.1-2.1,1.3-3.4c0.3-1.3,0.4-2.5,0.4-3.9s-0.1-2.6-0.4-3.9c-0.3-1.3-0.7-2.4-1.3-3.4
	c-0.6-1-1.5-1.8-2.5-2.4c-1-0.6-2.3-0.9-3.9-0.9c-1.5,0-2.8,0.3-3.8,0.9c-1,0.6-1.8,1.4-2.5,2.4s-1.1,2.1-1.3,3.4s-0.4,2.6-0.4,3.9
	S200.4,62.6,200.6,63.9z"/>
<path d="M284.7,30.8V48h0.2c1.2-1.9,2.6-3.3,4.4-4.2c1.8-0.9,3.5-1.3,5.2-1.3c2.4,0,4.4,0.3,6,1c1.6,0.7,2.8,1.6,3.7,2.8
	c0.9,1.2,1.5,2.6,1.9,4.3c0.4,1.7,0.5,3.6,0.5,5.6v20.4h-9.1V57.8c0-2.7-0.4-4.8-1.3-6.1c-0.9-1.3-2.4-2-4.5-2
	c-2.5,0-4.3,0.7-5.4,2.2c-1.1,1.5-1.7,3.9-1.7,7.3v17.3h-9.1V30.8H284.7z"/>
<path d="M12.5,87.8V105h0.2c1.2-1.9,2.6-3.3,4.4-4.2c1.8-0.9,3.5-1.3,5.2-1.3c2.4,0,4.4,0.3,6,1c1.6,0.7,2.8,1.6,3.7,2.8
	c0.9,1.2,1.5,2.6,1.9,4.3c0.4,1.7,0.5,3.6,0.5,5.6v20.4h-9.1v-18.7c0-2.7-0.4-4.8-1.3-6.1c-0.9-1.3-2.4-2-4.5-2
	c-2.5,0-4.3,0.7-5.4,2.2c-1.1,1.5-1.7,3.9-1.7,7.3v17.3H3.5V87.8H12.5z"/>
<path d="M42.1,110.6c0.1-2.1,0.7-3.9,1.6-5.3c0.9-1.4,2.1-2.5,3.6-3.4c1.5-0.9,3.1-1.5,4.9-1.8c1.8-0.4,3.6-0.5,5.5-0.5
	c1.7,0,3.3,0.1,5.1,0.4c1.7,0.2,3.3,0.7,4.7,1.4c1.4,0.7,2.6,1.6,3.5,2.8s1.3,2.8,1.3,4.8v17.2c0,1.5,0.1,2.9,0.3,4.3
	c0.2,1.4,0.5,2.4,0.9,3.1h-9.2c-0.2-0.5-0.3-1-0.4-1.6c-0.1-0.5-0.2-1.1-0.2-1.6c-1.5,1.5-3.2,2.5-5.1,3.1c-2,0.6-4,0.9-6,0.9
	c-1.6,0-3.1-0.2-4.4-0.6c-1.4-0.4-2.6-1-3.6-1.8c-1-0.8-1.8-1.8-2.4-3.1c-0.6-1.2-0.9-2.7-0.9-4.4c0-1.9,0.3-3.4,1-4.6
	c0.7-1.2,1.5-2.2,2.6-2.9c1-0.7,2.2-1.3,3.6-1.6c1.3-0.4,2.7-0.7,4.1-0.9c1.4-0.2,2.7-0.4,4-0.5c1.3-0.1,2.5-0.3,3.5-0.6
	c1-0.3,1.8-0.6,2.4-1.1c0.6-0.5,0.9-1.2,0.8-2.1c0-1-0.2-1.8-0.5-2.3s-0.7-1-1.3-1.3c-0.5-0.3-1.2-0.5-1.9-0.6
	c-0.7-0.1-1.5-0.2-2.3-0.2c-1.8,0-3.2,0.4-4.2,1.2s-1.6,2-1.8,3.8H42.1z M63.1,117.3c-0.4,0.3-0.9,0.6-1.4,0.8
	c-0.6,0.2-1.2,0.4-1.9,0.5c-0.7,0.1-1.4,0.2-2.1,0.3c-0.7,0.1-1.5,0.2-2.2,0.3c-0.7,0.1-1.4,0.3-2,0.5c-0.7,0.2-1.2,0.5-1.7,0.9
	c-0.5,0.4-0.9,0.8-1.2,1.4c-0.3,0.6-0.4,1.3-0.4,2.1c0,0.8,0.1,1.5,0.4,2c0.3,0.6,0.7,1,1.2,1.3c0.5,0.3,1.1,0.5,1.8,0.7
	c0.7,0.1,1.4,0.2,2.1,0.2c1.8,0,3.2-0.3,4.2-0.9c1-0.6,1.7-1.3,2.2-2.1c0.5-0.8,0.8-1.7,0.9-2.5c0.1-0.9,0.2-1.5,0.2-2V117.3z"/>
<path d="M89.7,87.8v45.7h-9.1V87.8H89.7z"/>
<path d="M105.6,125.3c0.4,0.7,0.9,1.3,1.6,1.7c0.6,0.4,1.4,0.8,2.2,1c0.8,0.2,1.7,0.3,2.6,0.3c0.6,0,1.3-0.1,2-0.2
	c0.7-0.1,1.3-0.4,1.9-0.7c0.6-0.3,1.1-0.7,1.4-1.3c0.4-0.5,0.6-1.2,0.6-2c0-1.4-0.9-2.4-2.7-3.1c-1.8-0.7-4.3-1.4-7.6-2
	c-1.3-0.3-2.6-0.6-3.9-1.1c-1.3-0.4-2.4-0.9-3.4-1.6c-1-0.7-1.8-1.5-2.4-2.5c-0.6-1-0.9-2.2-0.9-3.7c0-2.1,0.4-3.9,1.2-5.2
	c0.8-1.4,1.9-2.4,3.3-3.2c1.4-0.8,2.9-1.3,4.6-1.7c1.7-0.3,3.5-0.5,5.2-0.5s3.5,0.2,5.2,0.5c1.7,0.3,3.2,0.9,4.5,1.7
	c1.3,0.8,2.4,1.9,3.3,3.2c0.9,1.3,1.4,3,1.6,5.1h-8.6c-0.1-1.7-0.8-2.9-2-3.6c-1.2-0.6-2.6-0.9-4.2-0.9c-0.5,0-1.1,0-1.7,0.1
	c-0.6,0.1-1.1,0.2-1.6,0.4c-0.5,0.2-0.9,0.5-1.2,0.9c-0.3,0.4-0.5,1-0.5,1.6c0,0.8,0.3,1.5,0.9,2c0.6,0.5,1.4,0.9,2.3,1.2
	c1,0.3,2.1,0.6,3.3,0.9c1.2,0.3,2.5,0.5,3.8,0.8c1.3,0.3,2.6,0.7,3.9,1.1c1.3,0.4,2.4,1,3.4,1.7c1,0.7,1.8,1.6,2.4,2.6
	c0.6,1,0.9,2.3,0.9,3.9c0,2.2-0.4,4-1.3,5.5c-0.9,1.5-2,2.7-3.4,3.6c-1.4,0.9-3,1.5-4.8,1.9c-1.8,0.4-3.7,0.5-5.5,0.5
	c-1.9,0-3.8-0.2-5.6-0.6c-1.8-0.4-3.5-1-4.9-1.9c-1.4-0.9-2.6-2.1-3.5-3.6c-0.9-1.5-1.4-3.3-1.5-5.5h8.6
	C105,123.7,105.2,124.6,105.6,125.3z"/>
<path d="M151.5,100.4v6.1h-6.7v16.4c0,1.5,0.3,2.6,0.8,3.1c0.5,0.5,1.5,0.8,3.1,0.8c0.5,0,1,0,1.5-0.1c0.5,0,0.9-0.1,1.3-0.2v7
	c-0.8,0.1-1.6,0.2-2.6,0.3c-0.9,0-1.9,0.1-2.8,0.1c-1.4,0-2.7-0.1-4-0.3c-1.3-0.2-2.4-0.6-3.3-1.1c-1-0.6-1.7-1.3-2.3-2.4
	c-0.6-1-0.8-2.4-0.8-4v-19.5h-5.5v-6.1h5.5v-9.9h9.1v9.9H151.5z"/>
<path d="M166.7,125.6c1.4,1.3,3.3,2,5.9,2c1.8,0,3.4-0.5,4.7-1.4c1.3-0.9,2.1-1.9,2.4-2.9h8c-1.3,4-3.2,6.8-5.9,8.5
	c-2.6,1.7-5.8,2.6-9.6,2.6c-2.6,0-5-0.4-7-1.2c-2.1-0.8-3.9-2-5.3-3.6c-1.5-1.5-2.6-3.4-3.4-5.5c-0.8-2.1-1.2-4.5-1.2-7
	c0-2.5,0.4-4.8,1.2-6.9c0.8-2.1,2-4,3.5-5.5c1.5-1.6,3.3-2.8,5.3-3.7c2.1-0.9,4.4-1.3,6.9-1.3c2.8,0,5.3,0.5,7.4,1.6
	c2.1,1.1,3.8,2.5,5.2,4.4c1.3,1.8,2.3,3.9,2.9,6.3c0.6,2.3,0.8,4.8,0.6,7.4h-23.9C164.6,122.1,165.4,124.2,166.7,125.6z M177,108.2
	c-1.1-1.2-2.7-1.8-5-1.8c-1.5,0-2.7,0.2-3.6,0.7c-1,0.5-1.7,1.1-2.3,1.8c-0.6,0.7-1,1.5-1.2,2.3c-0.2,0.8-0.4,1.5-0.4,2.2h14.8
	C178.8,111.1,178.1,109.4,177,108.2z"/>
<path d="M203.5,100.4v4.6h0.2c1.2-1.9,2.6-3.3,4.5-4.2c1.8-0.9,3.7-1.3,5.6-1.3c2.4,0,4.4,0.3,6,1c1.6,0.7,2.8,1.6,3.7,2.8
	c0.9,1.2,1.5,2.6,1.9,4.3c0.4,1.7,0.5,3.6,0.5,5.6v20.4h-9.1v-18.7c0-2.7-0.4-4.8-1.3-6.1c-0.9-1.3-2.4-2-4.5-2
	c-2.5,0-4.3,0.7-5.4,2.2c-1.1,1.5-1.7,3.9-1.7,7.3v17.3h-9.1v-33.1H203.5z"/>
<path d="M262.8,103.7c-1.3-1.4-2.8-2.5-4.4-3.1c-1.6-0.7-3.3-1-4.9-1c-2,0-4,0.4-5.9,1.2c-1.9,0.8-3.4,2-4.5,3.7h-0.1V88.1h0.1V72.4
	h0.1c1.1,1.6,2.5,2.8,4.3,3.7c1.7,0.8,3.6,1.2,5.7,1.2c2.4,0,4.6-0.5,6.4-1.4c1.8-0.9,3.3-2.2,4.5-3.8s2.1-3.4,2.7-5.4
	s0.9-4.2,0.9-6.4c0-2.3-0.3-4.6-0.9-6.8c-0.6-2.2-1.5-4-2.8-5.7c-1.2-1.6-2.8-2.9-4.7-3.9c-1.9-1-4.1-1.5-6.7-1.5
	c-2,0-3.9,0.4-5.6,1.2c-1.7,0.8-3.1,2.1-4.2,3.9h-0.1v-4.2h-8.6v44.4h-0.1v45.7h8.6v-4.2h0.1c1,1.8,2.4,3.1,4.4,3.9
	c1.9,0.8,4.1,1.2,6.5,1.2c1.7,0,3.3-0.3,4.9-1c1.6-0.7,3.1-1.7,4.4-3.1c1.3-1.4,2.4-3.2,3.2-5.4c0.8-2.2,1.2-4.8,1.2-7.8
	c0-3-0.4-5.6-1.2-7.8C265.2,106.9,264.1,105.1,262.8,103.7z M243.1,56.1c0.3-1.3,0.7-2.4,1.3-3.4c0.6-1,1.4-1.8,2.4-2.4
	c1-0.6,2.2-0.9,3.7-0.9c1.4,0,2.7,0.3,3.7,0.9c1,0.6,1.8,1.4,2.5,2.4c0.6,1,1.1,2.1,1.4,3.4c0.3,1.3,0.4,2.6,0.4,3.9
	c0,1.3-0.1,2.6-0.4,3.9s-0.7,2.4-1.3,3.4c-0.6,1-1.4,1.7-2.4,2.3s-2.2,0.9-3.7,0.9c-1.5,0-2.7-0.3-3.7-0.9c-1-0.6-1.8-1.4-2.5-2.3
	c-0.6-1-1.1-2.1-1.3-3.4s-0.4-2.6-0.4-3.9C242.7,58.7,242.8,57.4,243.1,56.1z M257.7,121c-0.3,1.3-0.8,2.4-1.4,3.4
	c-0.6,1-1.4,1.8-2.4,2.3c-1,0.6-2.1,0.9-3.5,0.9c-1.3,0-2.5-0.3-3.5-0.9c-1-0.6-1.8-1.4-2.4-2.3c-0.6-1-1.1-2.1-1.4-3.4
	c-0.3-1.3-0.4-2.6-0.4-4c0-1.4,0.1-2.8,0.4-4c0.3-1.3,0.8-2.4,1.4-3.4s1.5-1.8,2.4-2.3c1-0.6,2.1-0.9,3.5-0.9c1.4,0,2.5,0.3,3.5,0.9
	c1,0.6,1.8,1.4,2.4,2.3c0.6,1,1.1,2.1,1.4,3.4c0.3,1.3,0.4,2.6,0.4,4C258.1,118.4,258,119.7,257.7,121z"/>
<path d="M283.8,125.6c1.4,1.3,3.3,2,5.9,2c1.8,0,3.4-0.5,4.7-1.4c1.3-0.9,2.1-1.9,2.4-2.9h8c-1.3,4-3.2,6.8-5.9,8.5
	c-2.6,1.7-5.8,2.6-9.6,2.6c-2.6,0-5-0.4-7-1.2c-2.1-0.8-3.9-2-5.3-3.6c-1.5-1.5-2.6-3.4-3.4-5.5c-0.8-2.1-1.2-4.5-1.2-7
	c0-2.5,0.4-4.8,1.2-6.9c0.8-2.1,2-4,3.5-5.5c1.5-1.6,3.3-2.8,5.3-3.7c2.1-0.9,4.4-1.3,6.9-1.3c2.8,0,5.3,0.5,7.4,1.6
	c2.1,1.1,3.8,2.5,5.2,4.4c1.3,1.8,2.3,3.9,2.9,6.3c0.6,2.3,0.8,4.8,0.6,7.4h-23.9C281.7,122.1,282.4,124.2,283.8,125.6z M294,108.2
	c-1.1-1.2-2.7-1.8-5-1.8c-1.5,0-2.7,0.2-3.6,0.7c-1,0.5-1.7,1.1-2.3,1.8c-0.6,0.7-1,1.5-1.2,2.3c-0.2,0.8-0.4,1.5-0.4,2.2h14.8
	C295.9,111.1,295.1,109.4,294,108.2z"/>
<path d="M320.5,100.4v6.1h0.1c0.4-1,1-2,1.7-2.8c0.7-0.9,1.6-1.6,2.5-2.2c0.9-0.6,1.9-1.1,3-1.4c1.1-0.3,2.2-0.5,3.3-0.5
	c0.6,0,1.3,0.1,2,0.3v8.4c-0.4-0.1-0.9-0.2-1.5-0.2c-0.6-0.1-1.2-0.1-1.7-0.1c-1.7,0-3.1,0.3-4.2,0.8c-1.2,0.6-2.1,1.3-2.8,2.3
	s-1.2,2.1-1.5,3.4c-0.3,1.3-0.4,2.7-0.4,4.2v14.9h-9.1v-33.1H320.5z"/>
<path d="M367.3,135.9c-0.4,1.7-1.1,3.3-2.3,4.8c-1.2,1.5-2.9,2.7-5.2,3.7c-2.3,1-5.3,1.5-9.1,1.5c-1.6,0-3.3-0.2-5-0.6
	c-1.7-0.4-3.2-1-4.6-1.9c-1.4-0.9-2.5-2-3.5-3.3c-0.9-1.3-1.4-3-1.6-4.8h9c0.4,1.7,1.3,2.9,2.5,3.6c1.2,0.7,2.7,1,4.3,1
	c2.6,0,4.4-0.8,5.6-2.3s1.7-3.5,1.7-5.8v-4.4h-0.1c-1,1.7-2.4,3-4.2,3.9c-1.8,0.8-3.7,1.2-5.7,1.2c-2.5,0-4.6-0.4-6.4-1.3
	c-1.8-0.9-3.3-2.1-4.4-3.6c-1.2-1.5-2-3.3-2.5-5.3c-0.5-2-0.8-4.2-0.8-6.4c0-2.1,0.3-4.2,0.9-6.2c0.6-2,1.5-3.7,2.7-5.2
	c1.2-1.5,2.7-2.7,4.4-3.6c1.8-0.9,3.8-1.3,6.1-1.3c2.2,0,4.1,0.4,5.7,1.2c1.6,0.8,3,2.2,4.1,4.1h0.1v-4.4h8.6v31
	C367.9,132.7,367.7,134.2,367.3,135.9z M354.9,124.9c1-0.5,1.8-1.2,2.4-2c0.6-0.9,1.1-1.8,1.4-2.9c0.3-1.1,0.5-2.2,0.5-3.4
	c0-1.4-0.1-2.7-0.4-3.9s-0.7-2.3-1.3-3.2c-0.6-0.9-1.4-1.7-2.4-2.2c-1-0.6-2.2-0.8-3.7-0.8c-1.3,0-2.4,0.3-3.3,0.8
	c-0.9,0.5-1.7,1.2-2.3,2.1c-0.6,0.9-1.1,1.9-1.3,3c-0.3,1.1-0.4,2.3-0.4,3.6c0,1.2,0.1,2.4,0.4,3.6c0.2,1.2,0.6,2.2,1.2,3.2
	s1.3,1.7,2.3,2.3c0.9,0.6,2.1,0.9,3.5,0.9C352.8,125.7,353.9,125.4,354.9,124.9z"/>
<line id="Linie_1" class="st0" x1="7.5" y1="5" x2="280.5" y2="5"/>
</svg>
