<svg xmlns="http://www.w3.org/2000/svg" viewBox="0 0 299.2 271.23"><defs><style>.cls-1{isolation:isolate;}.cls-2{fill:red;}.cls-2,.cls-3{opacity:0.95;mix-blend-mode:color;}.cls-3{fill:#00c4ff;}</style></defs><title>Logo</title><g class="cls-1"><g id="Ebene_2" data-name="Ebene 2"><g id="Ebene_1-2" data-name="Ebene 1"><path class="cls-2" d="M144.69,268.69a96.77,96.77,0,0,0,47.21-24q28.6-26.53,35.56-68.91H173.67q-5.32,20-13.41,30.06a46.13,46.13,0,0,1-15.57,12.86c-19.22,4-37.29,4.22-53.79-.75A59.71,59.71,0,0,1,73,202.76q-17.62-21.7-17.63-65.3t16.7-67.41A56.06,56.06,0,0,1,90.9,52.71c16.1-5.91,34.34-5.43,53.79-1.38a44.46,44.46,0,0,1,15.9,11.78q8.08,9.48,13.26,28.12H228Q226.78,67,210.25,42.89,187.51,10.3,144.69,2.48A151.94,151.94,0,0,0,90.9,2.32,102.9,102.9,0,0,0,36,32Q0,68.74,0,136.58q0,62.76,31.65,98.79,23.24,26.34,59.25,33.32C110.23,272.11,128.14,272.05,144.69,268.69Z"/><path class="cls-3" d="M245.41,6.07v98.78H144.69V2.48a161.32,161.32,0,0,0-29-2.48A128.2,128.2,0,0,0,90.9,2.32V268.69a144.79,144.79,0,0,0,27.7,2.54,128.87,128.87,0,0,0,26.09-2.54V149.5H245.41V265.17H299.2V6.07Z"/></g></g></g></svg>